<svg width="500" height="500" viewBox="0 0 500 500" fill="none" xmlns="http://www.w3.org/2000/svg">
<circle cx="250" cy="250" r="250" fill="url(#paint0_linear)" fill-opacity="0.7"/>
<g filter="url(#filter0_d)">
<path d="M137.947 434.178C125.335 434.058 115.217 433.151 107.594 431.456C100.259 430.031 93.9567 426.048 88.6852 419.508C83.4235 413.248 80.5484 403.122 80.0598 389.131C79.4344 371.222 84.1759 346.541 94.2844 315.089C104.663 283.348 118.535 251.344 135.899 219.079C122.217 220.397 111.377 222.877 103.379 226.518C95.6511 229.87 90.3753 235.237 87.5512 242.62C88.6705 242.581 89.8387 243.941 91.0557 246.7C92.5526 249.45 93.3548 252.364 93.4623 255.442C93.6284 260.199 91.6665 264.19 87.5765 267.414C83.4866 270.639 77.1042 272.403 68.4295 272.706C61.7136 272.94 55.9038 271.042 51.0001 267.011C46.3665 262.69 43.8934 256.052 43.5807 247.097C43.2875 238.703 46.7916 230.735 54.0929 223.196C61.3845 215.377 71.2482 209.009 83.6842 204.092C96.1202 199.175 109.474 196.467 123.745 195.969C131.021 195.715 139.29 195.846 148.554 196.363C170.21 158.624 193.505 127.692 218.438 103.568C243.362 79.1629 267.436 66.555 290.662 65.744C299.057 65.4508 310.154 66.3241 323.954 68.3637C330.709 69.2485 337.744 70.1235 345.058 70.9888C352.643 71.5644 359.793 71.735 366.509 71.5005C383.579 70.9044 399.856 67.6743 415.341 61.8103C414.84 63.5089 413.351 69.0242 410.875 78.3563C408.679 87.6786 404.316 95.1154 397.786 100.667C391.256 106.218 382.674 109.179 372.04 109.551C363.925 109.834 356.621 109.249 350.126 107.794C343.621 106.06 337.392 104.177 331.437 102.143C325.762 100.1 321.791 98.6977 319.523 97.9363L300.565 204.923L365.626 202.651L358.316 234.005L294.934 236.219L277.03 337.285L371.053 334.002L363.792 378.802L208.907 384.211L235.906 230.715C216.015 222.725 196.951 218.347 178.713 217.583C164.244 252.55 152.459 288.123 143.356 324.302C134.523 360.193 130.488 389.051 131.25 410.878C131.611 421.231 132.811 427.493 134.848 429.664C136.894 432.114 137.928 433.618 137.947 434.178ZM259.397 97.0942C247.319 104.24 235.012 116.857 222.476 134.946C209.929 152.755 197.935 174.326 186.492 199.661C205.927 202.625 223.443 206.776 239.039 212.115L259.397 97.0942Z" fill="#FFD5D5"/>
</g>
<g filter="url(#filter1_i)">
<circle cx="250" cy="475" r="25" fill="url(#paint1_linear)"/>
</g>
<circle cx="238.5" cy="466.5" r="1.5" fill="black"/>
<circle cx="257.5" cy="461.5" r="1.5" fill="black"/>
<ellipse cx="253.543" cy="478.696" rx="6.69549" ry="3.96644" transform="rotate(-16.4057 253.543 478.696)" fill="#0B0B0B"/>
<defs>
<filter id="filter0_d" x="29.5635" y="61.8103" width="385.777" height="386.368" filterUnits="userSpaceOnUse" color-interpolation-filters="sRGB">
<feFlood flood-opacity="0" result="BackgroundImageFix"/>
<feColorMatrix in="SourceAlpha" type="matrix" values="0 0 0 0 0 0 0 0 0 0 0 0 0 0 0 0 0 0 127 0"/>
<feOffset dx="-10" dy="10"/>
<feGaussianBlur stdDeviation="2"/>
<feColorMatrix type="matrix" values="0 0 0 0 0.586333 0 0 0 0 0.391667 0 0 0 0 1 0 0 0 0.5 0"/>
<feBlend mode="normal" in2="BackgroundImageFix" result="effect1_dropShadow"/>
<feBlend mode="normal" in="SourceGraphic" in2="effect1_dropShadow" result="shape"/>
</filter>
<filter id="filter1_i" x="225" y="446" width="54" height="54" filterUnits="userSpaceOnUse" color-interpolation-filters="sRGB">
<feFlood flood-opacity="0" result="BackgroundImageFix"/>
<feBlend mode="normal" in="SourceGraphic" in2="BackgroundImageFix" result="shape"/>
<feColorMatrix in="SourceAlpha" type="matrix" values="0 0 0 0 0 0 0 0 0 0 0 0 0 0 0 0 0 0 127 0" result="hardAlpha"/>
<feOffset dx="5" dy="-5"/>
<feGaussianBlur stdDeviation="2"/>
<feComposite in2="hardAlpha" operator="arithmetic" k2="-1" k3="1"/>
<feColorMatrix type="matrix" values="0 0 0 0 0 0 0 0 0 0 0 0 0 0 0 0 0 0 0.25 0"/>
<feBlend mode="normal" in2="shape" result="effect1_innerShadow"/>
</filter>
<linearGradient id="paint0_linear" x1="250" y1="0" x2="250" y2="500" gradientUnits="userSpaceOnUse">
<stop stop-color="#2E0DF5" stop-opacity="0.99"/>
<stop offset="1" stop-color="#FE7965"/>
</linearGradient>
<linearGradient id="paint1_linear" x1="270" y1="457" x2="231" y2="500" gradientUnits="userSpaceOnUse">
<stop stop-color="#C4C4C4" stop-opacity="0"/>
<stop offset="0.0001" stop-color="#FFD4D4"/>
<stop offset="1" stop-color="#CAB1FF"/>
</linearGradient>
</defs>
</svg>
